<svg id="visual" viewBox="0 0 1920 1080" width="1920" height="1080" xmlns="http://www.w3.org/2000/svg" xmlns:xlink="http://www.w3.org/1999/xlink" version="1.1"><rect width="1920" height="1080" fill="#001829"></rect><g><g transform="translate(12 642)"><path d="M0 -179.7L155.6 -89.8L155.6 89.8L0 179.7L-155.6 89.8L-155.6 -89.8Z" fill="none" stroke="#297EA6" stroke-width="1.0"></path></g><g transform="translate(858 240)"><path d="M0 -121L104.8 -60.5L104.8 60.5L0 121L-104.8 60.5L-104.8 -60.5Z" fill="none" stroke="#297EA6" stroke-width="1.0"></path></g><g transform="translate(441 424)"><path d="M0 -77L66.7 -38.5L66.7 38.5L0 77L-66.7 38.5L-66.7 -38.5Z" fill="none" stroke="#297EA6" stroke-width="1.0"></path></g><g transform="translate(1817 843)"><path d="M0 -81L70.1 -40.5L70.1 40.5L0 81L-70.1 40.5L-70.1 -40.5Z" fill="none" stroke="#297EA6" stroke-width="1.0"></path></g><g transform="translate(1707 484)"><path d="M0 -136L117.8 -68L117.8 68L0 136L-117.8 68L-117.8 -68Z" fill="none" stroke="#297EA6" stroke-width="1.0"></path></g><g transform="translate(394 1078)"><path d="M0 -127L110 -63.5L110 63.5L0 127L-110 63.5L-110 -63.5Z" fill="none" stroke="#297EA6" stroke-width="1.0"></path></g></g></svg>